<svg width="128" height="128" viewBox="0 0 128 128" fill="none" xmlns="http://www.w3.org/2000/svg">
<rect width="128" height="128" fill="#102027"/>
<path d="M106.805 50.048L99.9992 43.2418C98.3836 41.6262 95.7711 41.6262 94.1727 43.2418L53.0086 84.4058L33.8617 65.2418C32.2461 63.6262 29.6336 63.6262 28.0352 65.2418L21.2117 72.0652C19.5961 73.6808 19.5961 76.2933 21.2117 77.909L50.0867 106.801C51.7023 108.417 54.3148 108.417 55.9133 106.801L106.788 55.8918C108.404 54.259 108.404 51.6465 106.805 50.048ZM51.0664 68.2668C52.132 69.3496 53.8852 69.3496 54.9508 68.2668L90.7008 32.4824C91.7664 31.3996 91.7664 29.6637 90.7008 28.598L82.932 20.8121C81.8664 19.7293 80.1133 19.7293 79.0477 20.8121L53.0086 46.8512L43.4867 37.3121C42.4211 36.2293 40.668 36.2293 39.6023 37.3121L31.8164 45.098C30.7508 46.1809 30.7508 47.9168 31.8164 48.9824L51.0664 68.2668Z" fill="#00BCD4"/>
</svg>
